<svg id="visual" viewBox="0 0 450 900" width="450" height="900" xmlns="http://www.w3.org/2000/svg" xmlns:xlink="http://www.w3.org/1999/xlink" version="1.1"><rect x="0" y="0" width="450" height="900" fill="#9BDBE9"></rect><path d="M0 469L10.7 472.7C21.3 476.3 42.7 483.7 64.2 474.8C85.7 466 107.3 441 128.8 446.5C150.3 452 171.7 488 193 473.3C214.3 458.7 235.7 393.3 257 372C278.3 350.7 299.7 373.3 321.2 372.7C342.7 372 364.3 348 385.8 338.5C407.3 329 428.7 334 439.3 336.5L450 339L450 901L439.3 901C428.7 901 407.3 901 385.8 901C364.3 901 342.7 901 321.2 901C299.7 901 278.3 901 257 901C235.7 901 214.3 901 193 901C171.7 901 150.3 901 128.8 901C107.3 901 85.7 901 64.2 901C42.7 901 21.3 901 10.7 901L0 901Z" fill="#c8aa76"></path><path d="M0 483L10.7 494C21.3 505 42.7 527 64.2 546.8C85.7 566.7 107.3 584.3 128.8 569.2C150.3 554 171.7 506 193 480.2C214.3 454.3 235.7 450.7 257 456.7C278.3 462.7 299.7 478.3 321.2 488.3C342.7 498.3 364.3 502.7 385.8 511C407.3 519.3 428.7 531.7 439.3 537.8L450 544L450 901L439.3 901C428.7 901 407.3 901 385.8 901C364.3 901 342.7 901 321.2 901C299.7 901 278.3 901 257 901C235.7 901 214.3 901 193 901C171.7 901 150.3 901 128.8 901C107.3 901 85.7 901 64.2 901C42.7 901 21.3 901 10.7 901L0 901Z" fill="#817b42"></path><path d="M0 632L10.7 631.5C21.3 631 42.7 630 64.2 614.5C85.7 599 107.3 569 128.8 551.8C150.3 534.7 171.7 530.3 193 532.5C214.3 534.7 235.7 543.3 257 548C278.3 552.7 299.7 553.3 321.2 572.7C342.7 592 364.3 630 385.8 651.8C407.3 673.7 428.7 679.3 439.3 682.2L450 685L450 901L439.3 901C428.7 901 407.3 901 385.8 901C364.3 901 342.7 901 321.2 901C299.7 901 278.3 901 257 901C235.7 901 214.3 901 193 901C171.7 901 150.3 901 128.8 901C107.3 901 85.7 901 64.2 901C42.7 901 21.3 901 10.7 901L0 901Z" fill="#585f28"></path><path d="M0 672L10.7 676.5C21.3 681 42.7 690 64.2 690C85.7 690 107.3 681 128.8 670.7C150.3 660.3 171.7 648.7 193 660C214.3 671.3 235.7 705.7 257 724.5C278.3 743.3 299.7 746.7 321.2 743.5C342.7 740.3 364.3 730.7 385.8 712.3C407.3 694 428.7 667 439.3 653.5L450 640L450 901L439.3 901C428.7 901 407.3 901 385.8 901C364.3 901 342.7 901 321.2 901C299.7 901 278.3 901 257 901C235.7 901 214.3 901 193 901C171.7 901 150.3 901 128.8 901C107.3 901 85.7 901 64.2 901C42.7 901 21.3 901 10.7 901L0 901Z" fill="#817b42"></path><path d="M0 762L10.7 763.3C21.3 764.7 42.7 767.3 64.2 763.3C85.7 759.3 107.3 748.7 128.8 755.8C150.3 763 171.7 788 193 795.8C214.3 803.7 235.7 794.3 257 796C278.3 797.7 299.7 810.3 321.2 813.7C342.7 817 364.3 811 385.8 810.2C407.3 809.3 428.7 813.7 439.3 815.8L450 818L450 901L439.3 901C428.7 901 407.3 901 385.8 901C364.3 901 342.7 901 321.2 901C299.7 901 278.3 901 257 901C235.7 901 214.3 901 193 901C171.7 901 150.3 901 128.8 901C107.3 901 85.7 901 64.2 901C42.7 901 21.3 901 10.7 901L0 901Z" fill="#c8aa76"></path></svg>